<?xml version="1.0" encoding="UTF-8" standalone="no"?>
<svg
   xmlns:dc="http://purl.org/dc/elements/1.1/"
   xmlns:cc="http://creativecommons.org/ns#"
   xmlns:rdf="http://www.w3.org/1999/02/22-rdf-syntax-ns#"
   xmlns:svg="http://www.w3.org/2000/svg"
   xmlns="http://www.w3.org/2000/svg"
   xmlns:sodipodi="http://sodipodi.sourceforge.net/DTD/sodipodi-0.dtd"
   xmlns:inkscape="http://www.inkscape.org/namespaces/inkscape"
   width="7in"
   height="7in"
   viewBox="0 0 672.00001 672.00003"
   version="1.1"
   xml:space="preserve"
   style="clip-rule:evenodd;fill-rule:evenodd;stroke-linecap:round;stroke-linejoin:round;stroke-miterlimit:1.5"
   id="svg947"
   sodipodi:docname="logo2.svg"
   inkscape:version="0.92.3 (2405546, 2018-03-11)"><metadata
   id="metadata953"><rdf:RDF><cc:Work
       rdf:about=""><dc:format>image/svg+xml</dc:format><dc:type
         rdf:resource="http://purl.org/dc/dcmitype/StillImage" /><dc:title></dc:title></cc:Work></rdf:RDF></metadata><defs
   id="defs951" /><sodipodi:namedview
   pagecolor="#ffffff"
   bordercolor="#666666"
   borderopacity="1"
   objecttolerance="10"
   gridtolerance="10"
   guidetolerance="10"
   inkscape:pageopacity="0"
   inkscape:pageshadow="2"
   inkscape:window-width="2493"
   inkscape:window-height="1385"
   id="namedview949"
   showgrid="false"
   inkscape:zoom="1.204"
   inkscape:cx="69.774919"
   inkscape:cy="327.00515"
   inkscape:window-x="67"
   inkscape:window-y="27"
   inkscape:window-maximized="1"
   inkscape:current-layer="svg947"
   units="in" />
    <g
   id="Layer1"
   transform="matrix(0.36813642,0,0,0.36813642,312.34626,301.46667)">
        <g
   transform="matrix(21.7676,-1.67174,1.56756,20.411,-1459.09,-1317.23)"
   id="g906">
            <path
   d="m 101.667,55.665 c 0,-4.644 -3.536,-8.415 -7.891,-8.415 H 34.391 c -4.355,0 -7.891,3.771 -7.891,8.415 v 32.67 c 0,4.644 3.536,8.415 7.891,8.415 h 59.385 c 4.355,0 7.891,-3.771 7.891,-8.415 z"
   style="fill:#403c3c;stroke:#676767;stroke-width:1.55999994px"
   id="path904"
   inkscape:connector-curvature="0" />
        </g>
        <g
   transform="matrix(10.4324,-0.762793,0.788494,10.7839,-910.913,-519.817)"
   id="g910">
            <rect
   x="30.333"
   y="15.958"
   width="123.333"
   height="10.333"
   style="fill:#989898"
   id="rect908" />
        </g>
        <g
   transform="matrix(10.4426,-0.607527,0.590589,10.1515,-857.477,-497.419)"
   id="g914">
            <rect
   x="30.333"
   y="15.958"
   width="123.333"
   height="10.333"
   style="fill:#d4d4d4"
   id="rect912" />
        </g>
        <g
   transform="matrix(22.5859,0,0,20.3805,-1392.73,-1333.51)"
   id="g918">
            <path
   d="m 101.667,55.665 c 0,-4.644 -3.403,-8.415 -7.594,-8.415 h -59.98 c -4.191,0 -7.593,3.771 -7.593,8.415 v 32.67 c 0,4.644 3.402,8.415 7.593,8.415 h 59.98 c 4.191,0 7.594,-3.771 7.594,-8.415 z"
   style="fill:#545454;stroke:#676767;stroke-width:1.54999995px"
   id="path916"
   inkscape:connector-curvature="0" />
        </g>
        
        
        <g
   transform="matrix(22.0427,0,0,22.0427,-1356.84,-1529.77)"
   id="g940">
            <g
   transform="matrix(0.0166278,0,0,0.0169216,38.2584,49.3588)"
   id="g930">
                <path
   d="m 408.79,544.347 c -4.781,393.34 11.42,829.733 222.972,1280.253 233.27,496.77 562.438,768.91 880.738,902.9 400.43,-203.47 700.25,-512.61 875.74,-926.93 C 2565.08,1390.14 2623.25,986.361 2613.93,546.64 2401.04,668.826 2190.35,711.166 1980.91,665.398 1800.1,625.888 1619.67,480.693 1504.39,342.5 1342.48,544.925 1094.45,674.584 905.24,674.128 603.662,673.4 408.79,544.347 408.79,544.347 Z"
   style="fill:#535050;stroke:#231f20;stroke-width:113.56999969px;stroke-linecap:butt;stroke-miterlimit:1.41420996"
   id="path928"
   inkscape:connector-curvature="0" />
            </g>
            <g
   transform="matrix(0.0156112,0,0,0.01624605,39.675272,50.611315)"
   id="g934">
                <path
   d="m 395.114,579.927 c -4.781,393.341 25.096,794.153 236.648,1244.673 233.27,496.77 562.438,768.91 880.738,902.9 400.43,-203.47 677.91,-509.43 866.26,-919.86 157.91,-344.09 267.28,-776.03 257.97,-1215.749 -212.9,122.186 -446.38,119.275 -655.82,73.507 C 1800.1,625.888 1626.34,498.787 1511.05,360.594 1349.14,563.019 1067.1,686.858 877.887,686.402 576.309,685.674 395.114,579.927 395.114,579.927 Z"
   style="fill:#f4b728"
   id="path932"
   inkscape:connector-curvature="0" />
            </g>
            <g
   transform="matrix(0.0863573,0,0,0.0863573,43.8769,56.212)"
   id="g938">
                <path
   d="M 305.776,155.342 V 120.964 H 244.28 V 83.228 h -37.768 v 37.736 h -61.496 v 45.532 h 95.333 l -77.956,107.298 -17.377,22.075 v 34.377 h 61.496 v 37.616 h 4.529 v 0.153 h 28.709 v -0.153 h 4.53 v -37.616 h 61.496 V 284.714 H 210.443 L 288.4,177.416 Z"
   style="fill:#231f20;fill-rule:nonzero"
   id="path936"
   inkscape:connector-curvature="0" />
            </g>
        </g>
        
    </g><g
   inkscape:groupmode="layer"
   id="layer1"
   inkscape:label="Belt"
   style="display:inline"
   transform="translate(0,547.00007)"><g
     style="clip-rule:evenodd;fill-rule:evenodd;stroke-linecap:round;stroke-linejoin:round;stroke-miterlimit:1.5"
     transform="matrix(3.6074755,0,0,3.1676851,24.481313,-551.22181)"
     id="g922">
            <path
   d="m 174.197,108.212 c 0,-3.207 -2.286,-5.81 -5.101,-5.81 h -31.213 c -2.816,0 -5.102,2.603 -5.102,5.81 v 13.64 c 0,3.206 2.286,5.809 5.102,5.809 h 31.213 c 2.815,0 5.101,-2.603 5.101,-5.809 z"
   style="fill:#545454;stroke:#676767;stroke-width:5.17999983px"
   id="path920"
   inkscape:connector-curvature="0" />
        </g><g
     style="clip-rule:evenodd;fill-rule:evenodd;stroke-linecap:round;stroke-linejoin:round;stroke-miterlimit:1.5"
     transform="matrix(4.2945691,0,0,4.3255294,-62.20745,-679.73088)"
     id="g926">
            <circle
   cx="140.291"
   cy="113.78"
   r="5.006"
   style="fill:#ffffff"
   id="circle924" />
        </g></g>
</svg>