<?xml version="1.0" encoding="UTF-8" standalone="no"?>
<!-- Created with Inkscape (http://www.inkscape.org/) -->

<svg
   xmlns:dc="http://purl.org/dc/elements/1.1/"
   xmlns:cc="http://creativecommons.org/ns#"
   xmlns:rdf="http://www.w3.org/1999/02/22-rdf-syntax-ns#"
   xmlns:svg="http://www.w3.org/2000/svg"
   xmlns="http://www.w3.org/2000/svg"
   xmlns:sodipodi="http://sodipodi.sourceforge.net/DTD/sodipodi-0.dtd"
   xmlns:inkscape="http://www.inkscape.org/namespaces/inkscape"
   width="210mm"
   height="297mm"
   viewBox="0 0 210 297"
   version="1.1"
   id="svg2470"
   inkscape:version="0.92.4 (f8dce91, 2019-08-02)"
   sodipodi:docname="logo.svg">
  <defs
     id="defs2464" />
  <sodipodi:namedview
     id="base"
     pagecolor="#ffffff"
     bordercolor="#666666"
     borderopacity="1.0"
     inkscape:pageopacity="0.0"
     inkscape:pageshadow="2"
     inkscape:zoom="0.98994949"
     inkscape:cx="426.41002"
     inkscape:cy="482.96311"
     inkscape:document-units="mm"
     inkscape:current-layer="layer1"
     showgrid="false"
     inkscape:window-width="3440"
     inkscape:window-height="1385"
     inkscape:window-x="0"
     inkscape:window-y="27"
     inkscape:window-maximized="1" />
  <metadata
     id="metadata2467">
    <rdf:RDF>
      <cc:Work
         rdf:about="">
        <dc:format>image/svg+xml</dc:format>
        <dc:type
           rdf:resource="http://purl.org/dc/dcmitype/StillImage" />
        <dc:title></dc:title>
      </cc:Work>
    </rdf:RDF>
  </metadata>
  <g
     inkscape:label="Layer 1"
     inkscape:groupmode="layer"
     id="layer1">
    <path
       inkscape:connector-curvature="0"
       d="M 155.55312,99.149184 H 78.748285 A 7.9192098,7.9192098 0 0 1 73.31741,95.941023 7.0626506,7.0626506 0 0 1 71.453674,92.076628 c -0.13718,-1.177756 0.0525,-2.355512 1.346281,-2.355512 h 69.397205 a 8.5636122,8.5636122 0 0 0 -8.31583,-6.672089 H 71.168142 a 8.5973195,8.5973195 0 0 0 -8.57159,8.57159 v 62.733053 a 8.5953366,8.5953366 0 0 0 8.57159,8.57153 h 82.546938 a 8.5953366,8.5953366 0 0 0 8.57151,-8.57153 v -46.84512 a 8.5953366,8.5953366 0 0 0 -6.73347,-8.359366 z"
       id="path1583"
       style="stroke-width:1.98277652"
       inkscape:export-xdpi="162.81201"
       inkscape:export-ydpi="162.81201" />
    <path
       inkscape:connector-curvature="0"
       style="fill:#ffb100;stroke-width:1.98277652"
       d="m 131.32552,114.36502 v 20.14504 a 17.448435,17.448435 0 0 1 -9.44193,15.45179 l -9.44201,4.95695 -9.44195,-4.95695 a 17.448435,17.448435 0 0 1 -9.442003,-15.45179 v -20.14504 l 18.883953,-7.41559 z"
       id="path1585"
       inkscape:export-xdpi="162.81201"
       inkscape:export-ydpi="162.81201" />
    <polygon
       transform="matrix(1.9827766,0,0,1.9827766,-583.04511,-838.02597)"
       points="349.786,495.773 350.021,495.773 350.021,495.781 351.507,495.781 351.507,495.773 351.742,495.773 351.742,493.825 354.927,493.825 354.927,491.467 349.99,491.467 354.027,485.91 354.927,484.766 354.927,482.986 351.742,482.986 351.742,481.032 349.786,481.032 349.786,482.986 346.601,482.986 346.601,485.344 351.538,485.344 347.501,490.901 346.601,492.044 346.601,493.825 349.786,493.825 "
       id="polygon1587"
       inkscape:export-xdpi="162.81201"
       inkscape:export-ydpi="162.81201" />
    <path
       inkscape:connector-curvature="0"
       style="fill:#ffb100;stroke-width:1.98277652"
       d="m 103.30697,92.031052 h 42.99255 c 0.47959,0 0.95967,0 1.4395,0 a 9.2000839,9.2000839 0 0 1 5.40899,2.775837 c 1.41374,1.189677 2.7362,2.040313 0.47586,2.040313 -29.50177,0 -43.14129,0 -72.642982,0 a 7.2529973,7.2529973 0 0 1 -4.292694,-2.077934 c 0,0 -1.903469,-2.736262 0.396441,-2.738216 z"
       id="path1589"
       inkscape:export-xdpi="162.81201"
       inkscape:export-ydpi="162.81201" />
    <path
       inkscape:connector-curvature="0"
       d="m 34.441137,194.77258 10.034839,-11.63296 h -9.54707 v -4.42952 h 15.889966 v 4.36208 l -9.844484,11.48824 h 10.55036 l -0.67611,4.42954 H 34.441176 Z"
       id="path1591"
       style="stroke-width:1.98277652" />
    <path
       inkscape:connector-curvature="0"
       d="m 58.983936,190.04366 c 0,2.53595 1.274947,5.01647 4.070659,5.01647 a 3.1942531,3.1942531 0 0 0 3.537295,-2.16719 h 5.621131 a 8.8868054,8.8868054 0 0 1 -9.305159,6.56096 c -6.679965,0 -9.578789,-4.9966 -9.578789,-10.3104 0,-6.36074 3.265638,-10.9053 9.779013,-10.9053 6.963542,0 9.33299,5.03827 9.33299,10.1003 a 12.491493,12.491493 0 0 1 -0.075,1.70914 z m 7.832022,-3.44804 c -0.0375,-2.3615 -0.98148,-4.34822 -3.717761,-4.34822 -2.690627,0 -3.767284,1.85588 -3.997273,4.34822 z"
       id="path1593"
       style="stroke-width:1.98277652" />
    <path
       inkscape:connector-curvature="0"
       d="m 94.168306,192.43687 a 8.436715,8.436715 0 0 1 -9.120746,7.02303 c -6.311197,0 -9.558992,-4.36217 -9.558992,-10.46314 0,-5.98798 3.654283,-10.7566 9.826681,-10.7566 6.840554,0 8.740056,4.90538 8.849089,7.19951 H 88.684 a 3.1724427,3.1724427 0 0 0 -3.47585,-2.80566 c -2.565704,0 -4.021038,2.24849 -4.021038,6.18033 0,4.31847 1.538589,6.28542 3.997293,6.28542 a 3.4500314,3.4500314 0 0 0 3.465882,-2.66289 z"
       id="path1595"
       style="stroke-width:1.98277652" />
    <path
       inkscape:connector-curvature="0"
       d="m 98.457111,179.40015 c 2.898809,10.11211 4.584129,15.90578 4.897429,17.62886 h 0.0375 c 0.31325,-1.56638 2.27226,-7.71699 5.32769,-17.62886 h 2.11561 c 3.64439,12.10484 4.74083,15.59251 5.09381,17.12121 h 0.0375 c 0.54931,-2.15527 1.45134,-5.0937 5.05607,-17.12121 h 2.07591 l -6.19014,19.58981 h -2.15534 c -2.11562,-6.93972 -4.66147,-15.43591 -5.05408,-17.24024 h -0.0375 c -0.39644,1.91928 -2.62296,8.92246 -5.17082,17.24024 h -2.35154 l -5.750046,-19.58981 z"
       id="path1597"
       style="stroke-width:1.98277652" />
    <path
       inkscape:connector-curvature="0"
       d="m 140.2976,195.26831 a 22.496584,22.496584 0 0 0 0.27353,3.72165 h -1.87965 a 12.947532,12.947532 0 0 1 -0.35295,-3.01783 6.4420413,6.4420413 0 0 1 -6.42621,3.48777 5.8333288,5.8333288 0 0 1 -6.50351,-5.877 c 0,-4.31051 3.33107,-6.26951 9.20807,-6.26951 h 3.72165 v -1.99864 c 0,-1.95899 -0.59503,-4.58218 -5.05408,-4.58218 -3.96559,0 -4.54457,2.07591 -4.9748,3.682 h -1.96101 c 0.23605,-2.15525 1.56842,-5.48437 6.97545,-5.48437 4.4652,0 6.97343,1.87963 6.97343,6.19023 z m -1.91928,-6.26961 h -3.84065 c -4.34824,0 -7.05077,1.13617 -7.05077,4.50492 a 4.092451,4.092451 0 0 0 4.50484,4.1638 c 5.60339,0 6.38658,-3.72165 6.38658,-7.95491 z"
       id="path1599"
       style="stroke-width:1.98277652" />
    <path
       inkscape:connector-curvature="0"
       d="m 146.75948,198.98996 v -28.87717 h 1.95901 v 28.87717 z"
       id="path1601"
       style="stroke-width:1.98277652" />
    <path
       inkscape:connector-curvature="0"
       d="m 155.14267,198.98996 v -28.87717 h 1.96096 v 28.87717 z"
       id="path1603"
       style="stroke-width:1.98277652" />
    <path
       inkscape:connector-curvature="0"
       d="m 163.95812,189.42901 c 0.0375,5.05407 2.57761,8.18887 6.34483,8.18887 a 5.514102,5.514102 0 0 0 5.64101,-3.682 h 1.99862 a 7.5107584,7.5107584 0 0 1 -7.71688,5.52402 c -5.94833,0 -8.26824,-5.13344 -8.26824,-10.11219 0,-5.60138 2.7759,-10.41946 8.50219,-10.41946 6.03354,0 7.95483,5.20874 7.95483,8.89271 0,0.54704 0,1.09845 -0.0375,1.60602 z m 12.42012,-1.72302 c -0.0375,-3.88029 -2.15527,-6.93978 -5.99592,-6.93978 -4.03497,0 -5.877,2.82155 -6.30721,6.93978 z"
       id="path1605"
       style="stroke-width:1.98277652" />
    <path
       inkscape:connector-curvature="0"
       d="m 180.56782,179.40015 h 3.64437 v -6.11291 h 1.95892 v 6.11291 h 4.66156 v 1.84193 h -4.66156 v 12.73142 c 0,2.19498 0.46986,3.45005 2.34965,3.45005 a 7.46912,7.46912 0 0 0 2.03828,-0.23604 v 1.72503 a 6.9397188,6.9397188 0 0 1 -2.42894,0.35071 c -2.50823,0 -3.91791,-1.25314 -3.91791,-4.38793 V 181.2417 h -3.64437 z"
       id="path1607"
       style="stroke-width:1.98277652" />
    <path
       inkscape:connector-curvature="0"
       d="M 155.55312,99.149184 H 78.748285 A 7.9192098,7.9192098 0 0 1 73.31741,95.941023 7.0626506,7.0626506 0 0 1 71.453674,92.076628 c -0.13718,-1.177756 0.0525,-2.355512 1.346281,-2.355512 h 69.397205 a 8.5636122,8.5636122 0 0 0 -8.31583,-6.672089 H 71.168142 a 8.5973195,8.5973195 0 0 0 -8.57159,8.57159 v 62.733053 a 8.5953366,8.5953366 0 0 0 8.57159,8.57153 h 82.546938 a 8.5953366,8.5953366 0 0 0 8.57151,-8.57153 v -46.84512 a 8.5953366,8.5953366 0 0 0 -6.73347,-8.359366 z"
       id="path1583-5"
       style="stroke-width:1.98277652"
       inkscape:export-xdpi="162.81201"
       inkscape:export-ydpi="162.81201" />
    <path
       inkscape:connector-curvature="0"
       style="fill:#ffb100;stroke-width:1.98277652"
       d="m 131.32552,114.36502 v 20.14504 a 17.448435,17.448435 0 0 1 -9.44193,15.45179 l -9.44201,4.95695 -9.44195,-4.95695 a 17.448435,17.448435 0 0 1 -9.442003,-15.45179 v -20.14504 l 18.883953,-7.41559 z"
       id="path1585-6"
       inkscape:export-xdpi="162.81201"
       inkscape:export-ydpi="162.81201" />
    <polygon
       transform="matrix(1.9827766,0,0,1.9827766,-583.04511,-838.02597)"
       points="349.786,495.773 350.021,495.773 350.021,495.781 351.507,495.781 351.507,495.773 351.742,495.773 351.742,493.825 354.927,493.825 354.927,491.467 349.99,491.467 354.027,485.91 354.927,484.766 354.927,482.986 351.742,482.986 351.742,481.032 349.786,481.032 349.786,482.986 346.601,482.986 346.601,485.344 351.538,485.344 347.501,490.901 346.601,492.044 346.601,493.825 349.786,493.825 "
       id="polygon1587-2"
       inkscape:export-xdpi="162.81201"
       inkscape:export-ydpi="162.81201" />
    <path
       inkscape:connector-curvature="0"
       style="fill:#ffb100;stroke-width:1.98277652"
       d="m 103.30697,92.031052 h 42.99255 c 0.47959,0 0.95967,0 1.4395,0 a 9.2000839,9.2000839 0 0 1 5.40899,2.775837 c 1.41374,1.189677 2.7362,2.040313 0.47586,2.040313 -29.50177,0 -43.14129,0 -72.642982,0 a 7.2529973,7.2529973 0 0 1 -4.292694,-2.077934 c 0,0 -1.903469,-2.736262 0.396441,-2.738216 z"
       id="path1589-9"
       inkscape:export-xdpi="162.81201"
       inkscape:export-ydpi="162.81201" />
    <path
       inkscape:connector-curvature="0"
       d="m 34.441137,194.77258 10.034839,-11.63296 h -9.54707 v -4.42952 h 15.889966 v 4.36208 l -9.844484,11.48824 h 10.55036 l -0.67611,4.42954 H 34.441176 Z"
       id="path1591-1"
       style="stroke-width:1.98277652" />
    <path
       inkscape:connector-curvature="0"
       d="m 58.983936,190.04366 c 0,2.53595 1.274947,5.01647 4.070659,5.01647 a 3.1942531,3.1942531 0 0 0 3.537295,-2.16719 h 5.621131 a 8.8868054,8.8868054 0 0 1 -9.305159,6.56096 c -6.679965,0 -9.578789,-4.9966 -9.578789,-10.3104 0,-6.36074 3.265638,-10.9053 9.779013,-10.9053 6.963542,0 9.33299,5.03827 9.33299,10.1003 a 12.491493,12.491493 0 0 1 -0.075,1.70914 z m 7.832022,-3.44804 c -0.0375,-2.3615 -0.98148,-4.34822 -3.717761,-4.34822 -2.690627,0 -3.767284,1.85588 -3.997273,4.34822 z"
       id="path1593-2"
       style="stroke-width:1.98277652" />
    <path
       inkscape:connector-curvature="0"
       d="m 94.168306,192.43687 a 8.436715,8.436715 0 0 1 -9.120746,7.02303 c -6.311197,0 -9.558992,-4.36217 -9.558992,-10.46314 0,-5.98798 3.654283,-10.7566 9.826681,-10.7566 6.840554,0 8.740056,4.90538 8.849089,7.19951 H 88.684 a 3.1724427,3.1724427 0 0 0 -3.47585,-2.80566 c -2.565704,0 -4.021038,2.24849 -4.021038,6.18033 0,4.31847 1.538589,6.28542 3.997293,6.28542 a 3.4500314,3.4500314 0 0 0 3.465882,-2.66289 z"
       id="path1595-7"
       style="stroke-width:1.98277652" />
    <path
       inkscape:connector-curvature="0"
       d="m 98.457111,179.40015 c 2.898809,10.11211 4.584129,15.90578 4.897429,17.62886 h 0.0375 c 0.31325,-1.56638 2.27226,-7.71699 5.32769,-17.62886 h 2.11561 c 3.64439,12.10484 4.74083,15.59251 5.09381,17.12121 h 0.0375 c 0.54931,-2.15527 1.45134,-5.0937 5.05607,-17.12121 h 2.07591 l -6.19014,19.58981 h -2.15534 c -2.11562,-6.93972 -4.66147,-15.43591 -5.05408,-17.24024 h -0.0375 c -0.39644,1.91928 -2.62296,8.92246 -5.17082,17.24024 h -2.35154 l -5.750046,-19.58981 z"
       id="path1597-0"
       style="stroke-width:1.98277652" />
    <path
       inkscape:connector-curvature="0"
       d="m 140.2976,195.26831 a 22.496584,22.496584 0 0 0 0.27353,3.72165 h -1.87965 a 12.947532,12.947532 0 0 1 -0.35295,-3.01783 6.4420413,6.4420413 0 0 1 -6.42621,3.48777 5.8333288,5.8333288 0 0 1 -6.50351,-5.877 c 0,-4.31051 3.33107,-6.26951 9.20807,-6.26951 h 3.72165 v -1.99864 c 0,-1.95899 -0.59503,-4.58218 -5.05408,-4.58218 -3.96559,0 -4.54457,2.07591 -4.9748,3.682 h -1.96101 c 0.23605,-2.15525 1.56842,-5.48437 6.97545,-5.48437 4.4652,0 6.97343,1.87963 6.97343,6.19023 z m -1.91928,-6.26961 h -3.84065 c -4.34824,0 -7.05077,1.13617 -7.05077,4.50492 a 4.092451,4.092451 0 0 0 4.50484,4.1638 c 5.60339,0 6.38658,-3.72165 6.38658,-7.95491 z"
       id="path1599-9"
       style="stroke-width:1.98277652" />
    <path
       inkscape:connector-curvature="0"
       d="m 146.75948,198.98996 v -28.87717 h 1.95901 v 28.87717 z"
       id="path1601-3"
       style="stroke-width:1.98277652" />
    <path
       inkscape:connector-curvature="0"
       d="m 155.14267,198.98996 v -28.87717 h 1.96096 v 28.87717 z"
       id="path1603-6"
       style="stroke-width:1.98277652" />
    <path
       inkscape:connector-curvature="0"
       d="m 163.95812,189.42901 c 0.0375,5.05407 2.57761,8.18887 6.34483,8.18887 a 5.514102,5.514102 0 0 0 5.64101,-3.682 h 1.99862 a 7.5107584,7.5107584 0 0 1 -7.71688,5.52402 c -5.94833,0 -8.26824,-5.13344 -8.26824,-10.11219 0,-5.60138 2.7759,-10.41946 8.50219,-10.41946 6.03354,0 7.95483,5.20874 7.95483,8.89271 0,0.54704 0,1.09845 -0.0375,1.60602 z m 12.42012,-1.72302 c -0.0375,-3.88029 -2.15527,-6.93978 -5.99592,-6.93978 -4.03497,0 -5.877,2.82155 -6.30721,6.93978 z"
       id="path1605-0"
       style="stroke-width:1.98277652" />
    <path
       inkscape:connector-curvature="0"
       d="m 180.56782,179.40015 h 3.64437 v -6.11291 h 1.95892 v 6.11291 h 4.66156 v 1.84193 h -4.66156 v 12.73142 c 0,2.19498 0.46986,3.45005 2.34965,3.45005 a 7.46912,7.46912 0 0 0 2.03828,-0.23604 v 1.72503 a 6.9397188,6.9397188 0 0 1 -2.42894,0.35071 c -2.50823,0 -3.91791,-1.25314 -3.91791,-4.38793 V 181.2417 h -3.64437 z"
       id="path1607-6"
       style="stroke-width:1.98277652" />
  </g>
</svg>
