<svg id="Layer_1" data-name="Layer 1" xmlns="http://www.w3.org/2000/svg" width="180" height="66" viewBox="0 0 180 66">
  <title>Artboard 32</title>
  <path d="M27.4331,47.592l-.7977-.0481-2.9985,2.407-3.0053,2.407-4.58-3.7825c-2.517-2.0838-4.5664-3.7962-4.5526-3.81a2.5964,2.5964,0,0,1,.4332.0413A30.4189,30.4189,0,0,0,15.6456,44.8a11.63,11.63,0,0,0,1.7468-.337,3.4927,3.4927,0,0,0-.4883-.4195c-.2682-.2063-.8528-.7084-1.2929-1.1141l-.8046-.729-.99-.0069a13.1193,13.1193,0,0,1-5.7081-1.1828c-.8665-.3921-1.231-.6053-1.231-.7359a23.43,23.43,0,0,1,.282-2.73,14.2566,14.2566,0,0,1,2.7165-5.8731,13.9343,13.9343,0,0,1,5.46-4.1538,16.4135,16.4135,0,0,1,3.7-1.011l.5708-.0756.2751.2407a2.1725,2.1725,0,0,0,2.71-.0412A2.0621,2.0621,0,0,0,23.3,25.4062a2.1352,2.1352,0,0,0-1.2173-2.3589,2.359,2.359,0,0,0-1.8087.0413,2.447,2.447,0,0,0-.6258.4539c-.2338.2613-.2682.2751-.99.3851a16.9067,16.9067,0,0,0-5.35,1.7468A16.3114,16.3114,0,0,0,8.734,29.0305,14.8137,14.8137,0,0,0,4.9929,35.44a13.8226,13.8226,0,0,0-.729,4.5115A10.228,10.228,0,0,0,4.8,43.5826c.0688.0619,3.6312,2.9778,7.9225,6.4714,4.2914,3.5,7.8468,6.3615,7.8882,6.3615.0481.0068,2.7714-2.1526,6.0518-4.7866,3.2873-2.634,5.9832-4.8,5.997-4.814a.0334.0334,0,0,0,0-.0482,2.46,2.46,0,0,0-.6121.1789A13.1608,13.1608,0,0,1,27.4331,47.592Zm8.0532-29.9845-5.77-4.7866H28.6985c-1.733,0-4.4289.0894-4.4083.1445.0138.0275.674.5433,1.4649,1.1416,2.4757,1.8568,3.8856,3.0122,9.1329,7.4274,1.5405,1.3,2.799,2.3863,2.799,2.4069s-.3989,2.3727-.894,5.213c-.4883,2.8471-.8941,5.22-.901,5.2679a2.5855,2.5855,0,0,1-.3645-.66,16.222,16.222,0,0,0-2.7508-4.0782l-.4814-.4951-.1513.9146c-.0894.5089-.2132,1.1554-.2888,1.4373l-.1307.5159.6189.9215a11.41,11.41,0,0,1,1.8638,4.2982,17.1894,17.1894,0,0,1,.2338,2.744l-.0207.4127-.8321.4126a13.5056,13.5056,0,0,1-9.4287.9284,11.6273,11.6273,0,0,1-2.7714-1.1,13.3627,13.3627,0,0,1-4.1058-3.1223c-.4332-.4814-.4813-.5639-.4263-.7083a2.484,2.484,0,0,0-.0757-1.3479,2.1064,2.1064,0,0,0-.97-1.1142,1.5235,1.5235,0,0,0-.99-.2063,1.76,1.76,0,0,0-1.0178.2,2.1382,2.1382,0,0,0-.5227,3.3973,2.1726,2.1726,0,0,0,1.1554.6052c.2545.0412.3164.0962.7084.64A14.3135,14.3135,0,0,0,20.37,43.2043a17.1921,17.1921,0,0,0,6.52,1.6919,16.6826,16.6826,0,0,0,5.22-.6534c1.7331-.502,5.6118-2.1525,5.7287-2.4482.0619-.1445,3.4248-19.0774,3.4248-19.27C41.2631,22.4421,39.2963,20.771,35.4863,17.6075ZM4.7934,30.5847l-.6121-3.3629c-.33-1.8431-.5983-3.3561-.5846-3.363.0069-.0069,2.0907-1.733,4.6353-3.8374l4.6215-3.8306H16.65l-.7565.7565a18.489,18.489,0,0,0-2.1526,2.682,19.89,19.89,0,0,0-1.8431,4.0576,2.5011,2.5011,0,0,0,.729-.2407c.3989-.1719,1.1485-.447,1.6643-.6189l.9422-.3164.3645-.7083a14.4526,14.4526,0,0,1,4.5733-4.9172l.4745-.3095.2476.1375a14.6725,14.6725,0,0,1,4.2914,4.1195A16.1163,16.1163,0,0,1,26.78,24.1683a16.213,16.213,0,0,1,.4195,7.2761,6.01,6.01,0,0,1-.4746,1.63,2.1381,2.1381,0,0,0,.0551,4.2226,2.1125,2.1125,0,0,0,2.29-1.21,2.4907,2.4907,0,0,0,.0619-1.6231c-.0894-.2269-.0894-.2819.0962-.8527a19.179,19.179,0,0,0,.5434-8.6859,16.6274,16.6274,0,0,0-5.5843-9.1742,20.4,20.4,0,0,0-4.6009-2.6821l-.5983-.2476H11.5536L5.7769,17.6075C2.0632,20.6885,0,22.4421,0,22.5247c0,.0618.5571,3.1566,1.2379,6.87s1.2379,6.7809,1.2379,6.8222c0,.22.0894-.0757.2132-.674a14.3825,14.3825,0,0,1,1.7262-4.3326Z" fill="#b0fded"/>
  <path d="M57.3486,25.1665l-7.7314,19.21H53.543l1.6787-4.3155h8.4209l1.6484,4.3155h4.1651l-7.7315-19.21ZM56.48,36.7349l2.9375-7.6123,2.9365,7.6123Zm19.06,7.6416H87.9756V40.84h-8.69v-4.375h7.4921V32.9282H79.2852V28.6733h8.69V25.1665H75.5391Zm31.0468-4.0752a6.9615,6.9615,0,0,1-3.2363.749,5.8109,5.8109,0,0,1-4.4053-1.8281,6.202,6.202,0,0,1-1.7685-4.4356,6.2774,6.2774,0,0,1,1.708-4.4355,5.4376,5.4376,0,0,1,4.166-1.8282,6.7954,6.7954,0,0,1,4.585,1.7383l2.4873-2.8466a9.5888,9.5888,0,0,0-7.1026-2.6377,9.4634,9.4634,0,0,0-6.9824,2.9375A9.7442,9.7442,0,0,0,93.16,34.8169a9.8407,9.8407,0,0,0,2.8466,7.1025A9.39,9.39,0,0,0,103.02,44.856a11.7,11.7,0,0,0,7.252-2.0977l.06-.06V34.8765h-3.7461Zm11.1475,4.0752H130.17V40.84h-8.69v-4.375h7.4922V32.9282H121.48V28.6733h8.69V25.1665H117.7334ZM148.66,36.5552a4.7852,4.7852,0,0,1-1.1387,3.2959,4.1255,4.1255,0,0,1-5.9336,0,4.79,4.79,0,0,1-1.1387-3.2959V25.2271h-3.7461V36.5552a8.3064,8.3064,0,0,0,2.1582,5.9931,8.3346,8.3346,0,0,0,11.3877,0,8.2334,8.2334,0,0,0,2.1572-5.9638V25.1968H148.66Zm22.0859-2.1885a22.6138,22.6138,0,0,0-2.4277-1.0781q-1.3038-.4952-2.4268-.81a5.532,5.532,0,0,1-1.8887-.8994,1.6645,1.6645,0,0,1-.749-1.3486,1.6,1.6,0,0,1,.749-1.378,3.53,3.53,0,0,1,2.0684-.54,5.58,5.58,0,0,1,2.6074.63,5.2477,5.2477,0,0,1,1.8877,1.5879l2.8467-2.5469a7.4144,7.4144,0,0,0-2.8467-2.3672,9.0861,9.0861,0,0,0-4.1055-.8994,7.8578,7.8578,0,0,0-5.0644,1.5586,4.9385,4.9385,0,0,0-1.9785,4.0459,4.54,4.54,0,0,0,1.0195,3.0566,6.2865,6.2865,0,0,0,2.5166,1.7979c.9893.39,1.9785.749,2.9668,1.0488a9.8091,9.8091,0,0,1,2.5176,1.1084,1.9751,1.9751,0,0,1,1.0185,1.709,1.8673,1.8673,0,0,1-.8691,1.6181,4.2641,4.2641,0,0,1-2.4268.6,5.7931,5.7931,0,0,1-4.8847-2.3985l-2.667,2.4883c1.5283,2.3066,4.0156,3.4463,7.4619,3.4463a8.0778,8.0778,0,0,0,5.3037-1.6485,5.314,5.314,0,0,0,2.0078-4.3154,4.8376,4.8376,0,0,0-.749-2.7275A4.9658,4.9658,0,0,0,170.7461,34.3667Z" fill="#fff"/>
</svg>
