<svg id="Layer_1" data-name="Layer 1" xmlns="http://www.w3.org/2000/svg" xmlns:xlink="http://www.w3.org/1999/xlink" width="550" height="344" viewBox="0 0 550 344">
  <defs>
    <clipPath id="clip-path">
      <path d="M.4149,0H550a0,0,0,0,1,0,0V340.2324a6,6,0,0,1-6,6H6.4149a6,6,0,0,1-6-6V0a0,0,0,0,1,0,0Z" fill="none"/>
    </clipPath>
  </defs>
  <title>splash</title>
  <path d="M-27.2765-17.4453H577.6914a0,0,0,0,1,0,0V357.0731a6.6046,6.6046,0,0,1-6.6046,6.6046H-20.6719a6.6046,6.6046,0,0,1-6.6046-6.6046V-17.4453a0,0,0,0,1,0,0Z" fill="#2601cf"/>
  <g clip-path="url(#clip-path)">
    <path d="M314.3236,94.8025s-1.75,38.5138,27.8481,116.0336c24.3671,63.8185,106.751,109.0717,106.751,109.0717s82.3839-45.2532,106.7509-109.0717c29.5985-77.52,27.8481-116.0336,27.8481-116.0336L448.9227,28.6441Z" fill="none" stroke="#2500c0" stroke-miterlimit="10" stroke-width="29.1046"/>
    <g>
      <line x1="63.8665" y1="270.6269" x2="63.8665" y2="463.3434" fill="none" stroke="#2500c0" stroke-miterlimit="10" stroke-width="29.1046"/>
      <line x1="63.8665" y1="270.6269" x2="220.0361" y2="203.5357" fill="none" stroke="#2500c0" stroke-miterlimit="10" stroke-width="29.1046"/>
      <line x1="63.8665" y1="270.6269" x2="-92.303" y2="203.5357" fill="none" stroke="#2500c0" stroke-miterlimit="10" stroke-width="29.1046"/>
      <polygon points="63.867 463.343 220.036 396.252 220.036 203.536 63.867 136.445 -92.303 203.536 -92.303 396.252 63.867 463.343" fill="none" stroke="#2500c0" stroke-miterlimit="10" stroke-width="29.1046"/>
    </g>
  </g>
  <g>
    <path d="M242.8337,236.89l-5.35,16.8916h-4.1113l-3.32-12.8066-3.32,12.8066h-3.98L217.404,236.89H221.04l3.7159,13.07,3.373-13.07h4.1377l3.3994,13.07,3.7158-13.07Z" fill="#c5cad3"/>
    <path d="M257.7165,249.9868h-7.4043l-1.4756,3.7949h-3.4521l6.7988-16.8916H256.03l6.7988,16.8916h-3.6621Zm-3.7148-9.6181-2.583,6.6933h5.165Z" fill="#c5cad3"/>
    <path d="M268.1735,236.89h3.294v13.7823h8.248v3.1093h-11.542Z" fill="#c5cad3"/>
    <path d="M285.0622,236.89h3.294v13.7823h8.248v3.1093h-11.542Z" fill="#c5cad3"/>
    <path d="M301.95,236.89h10.9356v3.083h-7.6417v3.7422h6.5879v3.1094h-6.5879v3.8477h7.6417v3.1093H301.95Z" fill="#c5cad3"/>
    <path d="M325.4265,239.9731v13.8086h-3.294V239.9731h-5.0068V236.89H330.46v3.083Z" fill="#c5cad3"/>
  </g>
  <line x1="112.9899" y1="199.5396" x2="437.425" y2="199.5396" fill="none" stroke="#c5cad3" stroke-miterlimit="10"/>
  <g>
    <g id="layer101">
      <path d="M134.033,156.9061c-7.9457-6.4686-14.5417-11.8676-14.669-11.9822-.4584-.4839-.9932-4.0366-.9932-6.7233a25.5936,25.5936,0,0,1,1.35-8.3532,27.4281,27.4281,0,0,1,6.9271-11.8677,30.2024,30.2024,0,0,1,8.4678-6.214,31.3052,31.3052,0,0,1,9.9067-3.2343c1.337-.2037,1.4006-.2292,1.8336-.7131a4.527,4.527,0,0,1,1.1587-.84,4.3682,4.3682,0,0,1,3.349-.0764,3.9532,3.9532,0,0,1,2.2538,4.3676,3.818,3.818,0,0,1-1.3116,2.2666,4.0224,4.0224,0,0,1-5.017.0764l-.5093-.4457-1.0569.14a30.3856,30.3856,0,0,0-6.8506,1.8718,25.8015,25.8015,0,0,0-10.1105,7.6911,26.4,26.4,0,0,0-5.03,10.8744,43.41,43.41,0,0,0-.5221,5.0552c0,.242.6749.6367,2.2793,1.3625a24.287,24.287,0,0,0,10.5688,2.19l1.8337.0127,1.49,1.35c.8149.7513,1.8973,1.6808,2.3939,2.0628a6.4735,6.4735,0,0,1,.9041.7768,21.5269,21.5269,0,0,1-3.2343.6239,56.2731,56.2731,0,0,1-6.8761.0127,4.8491,4.8491,0,0,0-.8023-.0764c-.0254.0255,3.7692,3.1962,8.43,7.0544l8.4806,7.0035,5.5645-4.4568,5.5519-4.4567,1.477.0891a24.37,24.37,0,0,0,8.5442-1.1969,4.546,4.546,0,0,1,1.1333-.3311.0615.0615,0,0,1,0,.0891c-.0254.0255-5.017,4.0366-11.1036,8.9135-6.0739,4.877-11.1164,8.8753-11.2055,8.8625C148.562,168.6846,141.9787,163.3875,134.033,156.9061Z" fill="#b0fded"/>
      <path d="M160.2641,147.356a31.8341,31.8341,0,0,1-12.0714-3.1325,26.502,26.502,0,0,1-9.6775-7.7547c-.7258-1.0059-.84-1.1078-1.3115-1.1842a4.022,4.022,0,0,1-2.1393-1.1206,3.959,3.959,0,0,1,.9678-6.29,3.2585,3.2585,0,0,1,1.8845-.3693,2.82,2.82,0,0,1,1.8337.382,3.9005,3.9005,0,0,1,1.7954,2.0628,4.5991,4.5991,0,0,1,.14,2.4958c-.1019.2674-.0128.42.7894,1.3116a24.7418,24.7418,0,0,0,7.602,5.781,21.5255,21.5255,0,0,0,5.1316,2.0374,25.006,25.006,0,0,0,17.4577-1.7191l1.5407-.764.0382-.764a31.8061,31.8061,0,0,0-.4329-5.0807,21.1228,21.1228,0,0,0-3.4508-7.9584l-1.146-1.7063.2419-.955c.14-.5221.3693-1.7191.5348-2.6614l.28-1.6935.8913.9168a30.038,30.038,0,0,1,5.0934,7.551,4.7829,4.7829,0,0,0,.6749,1.2224c.0127-.0891.764-4.4822,1.6681-9.7539.9168-5.2589,1.6553-9.6138,1.6553-9.652s-2.33-2.05-5.1825-4.4567c-9.7157-8.175-12.3261-10.3142-16.91-13.7523-1.4644-1.1078-2.6868-2.0628-2.7123-2.1137-.0382-.1019,4.9534-.2674,8.1622-.2674h1.8846l10.6834,8.8625c7.0544,5.8574,10.6962,8.9517,10.6962,9.1045,0,.3565-6.2267,35.4119-6.3413,35.6794-.2165.5475-7.3982,3.6035-10.6071,4.5331A30.8887,30.8887,0,0,1,160.2641,147.356Z" fill="#b0fded"/>
      <path d="M160.06,133.2854a3.9746,3.9746,0,0,1-.1019-7.8184,11.1315,11.1315,0,0,0,.8786-3.0178,30.0176,30.0176,0,0,0-.7767-13.4721,29.841,29.841,0,0,0-2.9542-6.1758,27.1662,27.1662,0,0,0-7.9458-7.6274l-.4584-.2546-.8786.573a26.762,26.762,0,0,0-8.4678,9.1045l-.6749,1.3115-1.7444.5858c-.9551.3183-2.343.8276-3.0816,1.146a4.64,4.64,0,0,1-1.35.4457c0-.7259,2.2538-5.7047,3.4126-7.5128a34.23,34.23,0,0,1,3.9856-4.9661l1.4007-1.4007h-7.029l-8.5569,7.0926c-4.7114,3.8964-8.57,7.0926-8.5824,7.1053-.0255.0127.4711,2.8141,1.0824,6.2267l1.1332,6.2267-.7,1.1587a26.637,26.637,0,0,0-3.1961,8.0222c-.2292,1.1078-.3948,1.6553-.3948,1.2479,0-.0764-1.0314-5.7556-2.292-12.6317s-2.292-12.6062-2.292-12.7208c0-.1528,3.82-3.4,10.6961-9.1045l10.6962-8.8625h13.765l1.1078.4584a37.7641,37.7641,0,0,1,8.5187,4.9661,30.7851,30.7851,0,0,1,10.34,16.9865,35.51,35.51,0,0,1-1.0059,16.0824c-.3438,1.0569-.3438,1.1588-.1783,1.579a4.61,4.61,0,0,1-.1146,3.0051A3.9112,3.9112,0,0,1,160.06,133.2854Z" fill="#b0fded"/>
    </g>
    <g>
      <path d="M228.31,138.4053H212.72l-3.1074,7.9892h-7.2676l14.3145-35.5634h8.1l14.3144,35.5634h-7.7119Zm-7.8223-20.251L215.05,132.2471h10.874Z" fill="#fff"/>
      <path d="M250.341,110.8311h23.0244v6.4912h-16.09v7.8789h13.87v6.5468h-13.87v8.1h16.09v6.5468H250.341Z" fill="#fff"/>
      <path d="M314.6462,143.3984c-3.44,2.6075-7.9336,3.8838-13.4258,3.8838a17.3819,17.3819,0,0,1-12.9829-5.4375,18.9651,18.9651,0,0,1,.0557-26.2978A17.5183,17.5183,0,0,1,301.22,110.11c5.4922,0,9.875,1.6084,13.1484,4.8818l-4.6035,5.27a12.5875,12.5875,0,0,0-8.49-3.2178,10.06,10.06,0,0,0-7.7109,3.3848,11.6156,11.6156,0,0,0-3.1626,8.2109,11.4806,11.4806,0,0,0,3.2739,8.211,10.7549,10.7549,0,0,0,8.1543,3.3847,12.8773,12.8773,0,0,0,5.9922-1.3867v-10.043h6.9355v14.4805Z" fill="#fff"/>
      <path d="M328.4665,110.8311H351.49v6.4912H335.4v7.8789h13.8711v6.5468H335.4v8.1h16.09v6.5468H328.4665Z" fill="#fff"/>
      <path d="M363.59,110.9424h6.9355v20.9717a8.8661,8.8661,0,0,0,2.1074,6.1025,7.64,7.64,0,0,0,10.9863,0,8.8657,8.8657,0,0,0,2.1075-6.1025V110.8867h6.9355V131.97c0,4.6045-1.332,8.2666-3.9941,11.04a15.4344,15.4344,0,0,1-21.084,0c-2.6621-2.7735-3.9941-6.4912-3.9941-11.0957Z" fill="#fff"/>
      <path d="M426.2868,120.7627a9.6914,9.6914,0,0,0-3.4941-2.94,10.33,10.33,0,0,0-4.8281-1.1661,6.5276,6.5276,0,0,0-3.8282.9991,2.9609,2.9609,0,0,0-1.3867,2.5517,3.0793,3.0793,0,0,0,1.3867,2.4971,10.2226,10.2226,0,0,0,3.4961,1.6641q2.08.5829,4.4942,1.498a41.9775,41.9775,0,0,1,4.4941,1.9981,9.1976,9.1976,0,0,1,3.4941,3.2177,8.9559,8.9559,0,0,1,1.3887,5.0489,9.833,9.833,0,0,1-3.7187,7.9892c-2.4961,2.0528-5.77,3.0508-9.82,3.0508-6.379,0-10.9844-2.1084-13.8145-6.38l4.9375-4.6055a10.7318,10.7318,0,0,0,9.0449,4.44,7.9,7.9,0,0,0,4.4942-1.11,3.46,3.46,0,0,0,1.6074-2.996,3.6527,3.6527,0,0,0-1.8867-3.1622,18.106,18.106,0,0,0-4.66-2.0527c-1.83-.5547-3.66-1.2207-5.4922-1.9414a11.6378,11.6378,0,0,1-4.66-3.3291,8.41,8.41,0,0,1-1.8868-5.6592,9.1464,9.1464,0,0,1,3.6622-7.49,14.555,14.555,0,0,1,9.3769-2.8848,16.8255,16.8255,0,0,1,7.6,1.6641,13.73,13.73,0,0,1,5.2715,4.3838Z" fill="#fff"/>
    </g>
  </g>
</svg>
